<?xml version="1.0" encoding="utf-8"?>
<!-- Generator: Adobe Illustrator 24.2.3, SVG Export Plug-In . SVG Version: 6.00 Build 0)  -->
<svg version="1.1" id="Layer_1" xmlns="http://www.w3.org/2000/svg" xmlns:xlink="http://www.w3.org/1999/xlink" x="0px" y="0px"
	 viewBox="0 0 165 36" style="enable-background:new 0 0 165 36;" xml:space="preserve">
<style type="text/css">
	.st0{fill:#91A9FF;}
	.st1{fill:#5E81FF;}
	.st2{fill:#3C65F5;}
</style>
<g>
	<g>
		<path d="M44.12,22.55c-0.53,0.3-1.6,0.6-2.97,0.6c-3.17,0-5.55-2.24-5.55-6.37c0-3.94,2.38-6.61,5.87-6.61
			c1.4,0,2.28,0.34,2.67,0.56l-0.35,1.33c-0.55-0.3-1.33-0.52-2.27-0.52c-2.64,0-4.39,1.89-4.39,5.19c0,3.08,1.58,5.06,4.32,5.06
			c0.88,0,1.78-0.21,2.37-0.52L44.12,22.55z"/>
		<path d="M47.75,19l-1.17,3.96h-1.5l3.82-12.59h1.75l3.84,12.59h-1.55L51.74,19H47.75z M51.44,17.73l-1.1-3.62
			c-0.25-0.82-0.42-1.57-0.58-2.3h-0.03c-0.17,0.75-0.35,1.51-0.57,2.28l-1.1,3.64H51.44z"/>
		<path d="M56.14,10.38h1.45V21.6h4.8v1.36h-6.25V10.38z"/>
		<path d="M71.86,22.55c-0.53,0.3-1.6,0.6-2.97,0.6c-3.17,0-5.55-2.24-5.55-6.37c0-3.94,2.38-6.61,5.87-6.61
			c1.4,0,2.28,0.34,2.67,0.56l-0.35,1.33c-0.55-0.3-1.33-0.52-2.27-0.52c-2.64,0-4.39,1.89-4.39,5.19c0,3.08,1.58,5.06,4.32,5.06
			c0.88,0,1.78-0.21,2.37-0.52L71.86,22.55z"/>
		<path d="M75.13,10.38v7.45c0,2.82,1.12,4.02,2.62,4.02c1.67,0,2.74-1.23,2.74-4.02v-7.45h1.47v7.34c0,3.87-1.82,5.45-4.25,5.45
			c-2.3,0-4.04-1.48-4.04-5.38v-7.41H75.13z"/>
		<path d="M84.46,10.38h1.45V21.6h4.8v1.36h-6.25V10.38z"/>
		<path d="M94.15,19l-1.17,3.96h-1.5l3.82-12.59h1.75l3.84,12.59h-1.55L98.14,19H94.15z M97.84,17.73l-1.1-3.62
			c-0.25-0.82-0.42-1.57-0.58-2.3h-0.03c-0.17,0.75-0.35,1.51-0.57,2.28l-1.1,3.64H97.84z"/>
		<path d="M104.67,11.76h-3.42v-1.38h8.32v1.38h-3.44v11.21h-1.47V11.76z"/>
		<path d="M120.43,16.54c0,4.33-2.35,6.63-5.22,6.63c-2.97,0-5.05-2.58-5.05-6.39c0-4,2.22-6.61,5.22-6.61
			C118.44,10.17,120.43,12.8,120.43,16.54z M111.71,16.74c0,2.69,1.3,5.1,3.59,5.1c2.3,0,3.6-2.37,3.6-5.23
			c0-2.5-1.17-5.12-3.59-5.12C112.91,11.5,111.71,13.98,111.71,16.74z"/>
		<path d="M122.31,10.54c0.73-0.17,1.78-0.26,2.79-0.26c1.55,0,2.55,0.32,3.25,1.03c0.57,0.56,0.88,1.42,0.88,2.39
			c0,1.66-0.93,2.76-2.12,3.21v0.06c0.87,0.34,1.38,1.23,1.65,2.54c0.37,1.76,0.63,2.97,0.87,3.46h-1.5
			c-0.18-0.35-0.43-1.44-0.75-3.01c-0.33-1.74-0.93-2.39-2.25-2.45h-1.37v5.45h-1.45V10.54z M123.76,16.28h1.48
			c1.55,0,2.54-0.95,2.54-2.39c0-1.62-1.05-2.33-2.59-2.35c-0.7,0-1.2,0.07-1.43,0.15V16.28z"/>
		<path d="M134.85,9.71h2.23v13.26h-2.23V9.71z M135.82,20.56h3.78c0.51,0,0.9-0.14,1.18-0.41c0.28-0.28,0.42-0.66,0.42-1.16v-0.03
			c0-0.33-0.06-0.62-0.19-0.86c-0.13-0.24-0.31-0.42-0.55-0.54c-0.24-0.12-0.53-0.19-0.87-0.19h-3.78v-2.41h3.78
			c0.46,0,0.82-0.13,1.07-0.39c0.25-0.26,0.38-0.63,0.38-1.1c0-0.43-0.13-0.76-0.38-0.99s-0.61-0.36-1.07-0.36h-3.78V9.71h3.85
			c0.76,0,1.42,0.14,1.96,0.42c0.54,0.28,0.96,0.69,1.24,1.23c0.28,0.54,0.42,1.18,0.42,1.94c0,0.52-0.09,0.97-0.27,1.37
			c-0.18,0.4-0.45,0.73-0.79,0.98c-0.35,0.26-0.76,0.43-1.25,0.52c0.52,0.08,0.97,0.26,1.34,0.53c0.37,0.28,0.65,0.64,0.85,1.08
			c0.19,0.44,0.29,0.96,0.29,1.54v0.03c0,0.76-0.14,1.41-0.43,1.95s-0.7,0.95-1.25,1.24c-0.55,0.28-1.2,0.42-1.97,0.42h-3.99V20.56z
			"/>
		<path d="M147.42,22.49c-0.65-0.4-1.16-0.98-1.52-1.71s-0.54-1.59-0.54-2.57v-3.76c0-0.97,0.18-1.83,0.54-2.57
			c0.36-0.74,0.86-1.31,1.52-1.71c0.65-0.4,1.41-0.61,2.27-0.61s1.61,0.2,2.27,0.61c0.65,0.4,1.16,0.98,1.52,1.71
			c0.36,0.74,0.54,1.59,0.54,2.57v3.76c0,0.97-0.18,1.83-0.54,2.57s-0.86,1.31-1.52,1.71c-0.65,0.4-1.41,0.61-2.27,0.61
			S148.07,22.9,147.42,22.49z M150.75,20.32c0.3-0.19,0.54-0.46,0.7-0.82c0.17-0.35,0.25-0.76,0.25-1.22v-3.88
			c0-0.46-0.08-0.87-0.25-1.22c-0.17-0.35-0.4-0.62-0.7-0.82c-0.3-0.19-0.66-0.29-1.06-0.29s-0.75,0.1-1.06,0.29
			s-0.54,0.46-0.7,0.82c-0.17,0.35-0.25,0.76-0.25,1.22v3.88c0,0.46,0.08,0.87,0.25,1.22c0.17,0.35,0.4,0.63,0.7,0.82
			s0.66,0.29,1.06,0.29S150.44,20.51,150.75,20.32z"/>
		<path d="M159.33,14.8l2.66-5.1h2.35l-3.92,7.49l-3.01,5.76h-2.35L159.33,14.8z M159.31,17.54l-0.23-0.43l-3.92-7.4h2.35l2.65,5.02
			l0.31,0.59l4.05,7.64h-2.35L159.31,17.54z"/>
	</g>
</g>
<path class="st0" d="M3.7,9.2l14.5-8.35v17.61L3.7,26.05V9.2z"/>
<path class="st1" d="M32.63,9.2l-14.5-8.35v17.61l14.5,7.59V9.2z"/>
<path class="st2" d="M18.13,18.46l14.5,7.59l-14.5,7.59L3.7,26.05L18.13,18.46z"/>
</svg>
